<?xml version="1.0" encoding="utf-8"?>
<!-- Generator: Adobe Illustrator 23.0.5, SVG Export Plug-In . SVG Version: 6.00 Build 0)  -->
<svg version="1.1" id="Layer_1" xmlns="http://www.w3.org/2000/svg" xmlns:xlink="http://www.w3.org/1999/xlink" x="0px" y="0px"
	 viewBox="0 0 293.8 192.3" enable-background="new 0 0 293.8 192.3" xml:space="preserve">
<g id="Background_Complete" transform="translate(65.62 55.734)">
	<g id="Group_127" transform="translate(223.353 21.537)">
		<path id="Path_289" fill="#EBEBEB" d="M-0.5-31.9L-5.1-9.7l-3-2.9l-5,3.6l-3.8-4.8l-8.6,6.3l-7.4-12.3l-8.2,4.8l-3.3-4.5
			l-10.4,5.9l-3.1-6.7l7.3-35.4l39.2,8.1L-0.5-31.9z"/>
		<path id="Path_290" fill="#DBDBDB" d="M-11.5-47.6l10.9,15.7l-13.6-2.8L-11.5-47.6z"/>
		<path id="Path_291" fill="#EBEBEB" d="M-6.1-5.3l-6.7,32.6l-52.8-10.9l6.7-32.4l3.1,6.7l10.4-5.9l3.3,4.5l8.2-4.8l7.4,12.3
			l8.6-6.3l3.8,4.8l5-3.6L-6.1-5.3z"/>
	</g>
	<g id="Group_129" transform="translate(149.25)">
		<path id="Path_292" fill="#EBEBEB" d="M-7.6,12.5l-53.8,3.3l-4.3-69.1l39.9-2.5L-11-43.4L-7.6,12.5z"/>
		<path id="Path_293" fill="#DBDBDB" d="M-25.7-55.7L-11-43.4l-13.9,0.9L-25.7-55.7z"/>
		<g id="Group_128" transform="translate(18.085 16.538)">
			<path id="Path_294" fill="#DBDBDB" d="M-58.7-25.8l-0.2-1.6c-0.5-3.2,0.3-6.8,3.1-10.6c2.5-3.3,3.9-5.8,3.8-8.5
				c-0.2-3.1-2.2-5-6-4.9c-2.2,0.1-4.3,0.9-6,2.2l-1.7-3.7c2.5-1.8,5.4-2.8,8.5-2.9c6.9-0.4,10.3,3.7,10.5,8.3
				c0.2,4.1-1.9,7.2-4.6,10.8c-2.5,3.3-3.3,6-2.9,9l0.1,1.6L-58.7-25.8z M-59.5-17.3c-0.2-2,1.2-3.7,3.1-4c0.1,0,0.2,0,0.3,0
				c2.1-0.2,3.9,1.3,4.1,3.4c0.2,2.1-1.3,3.9-3.4,4.1s-3.9-1.3-4.1-3.4C-59.5-17.2-59.5-17.3-59.5-17.3z"/>
		</g>
	</g>
	<g id="Group_130" transform="translate(22.006 16.513)">
		<path id="Path_295" fill="#EBEBEB" d="M-47.9-37.5l-5.4-2.5l-0.8,1.7c-0.2,0.5-0.7,0.8-1.2,0.8c-0.3,0-0.6,0-0.9,0.1
			c-0.5,0.1-1.1-0.1-1.4-0.6l-1.1-1.5l-4.8,3.5l1.1,1.5c0.3,0.4,0.3,1,0.1,1.5c-0.1,0.3-0.3,0.5-0.4,0.8c-0.2,0.5-0.6,0.8-1.2,0.9
			l-1.8,0.2l0.6,5.9l1.8-0.2c0.5,0,1,0.2,1.3,0.7c0.1,0.1,0.2,0.2,0.2,0.4s0.2,0.2,0.3,0.3c0.3,0.4,0.4,1,0.2,1.5l-0.8,1.7l5.4,2.5
			l0.8-1.7c0.2-0.5,0.7-0.8,1.2-0.8c0.3,0,0.6,0,0.9-0.1c0.5-0.1,1.1,0.1,1.4,0.6l1.1,1.5l4.8-3.5l-1.1-1.5c-0.3-0.4-0.3-1-0.1-1.5
			c0.1-0.3,0.3-0.5,0.4-0.8c0.2-0.5,0.6-0.8,1.2-0.9l1.8-0.2l-0.6-5.9l-1.8,0.2c-0.5,0-1-0.2-1.3-0.7c-0.1-0.1-0.2-0.2-0.2-0.4
			s-0.2-0.2-0.3-0.3c-0.3-0.4-0.4-1-0.2-1.5L-47.9-37.5z M-51-32.1c1.6,2.2,1.1,5.2-1.1,6.8s-5.2,1.1-6.8-1.1
			c-1.6-2.2-1.1-5.2,1.1-6.8C-55.6-34.7-52.5-34.2-51-32.1C-51-32.1-51-32.1-51-32.1L-51-32.1z"/>
		<path id="Path_296" fill="#EBEBEB" d="M196.7,40.9l-3.6,2.1l0.6,1.1c0.2,0.3,0.2,0.7,0,1c-0.1,0.2-0.2,0.4-0.3,0.5
			c-0.2,0.3-0.5,0.5-0.9,0.5h-1.3v4.2h1.3c0.4,0,0.7,0.2,0.9,0.5c0.1,0.2,0.2,0.4,0.3,0.5c0.2,0.3,0.2,0.7,0,1l-0.6,1.1l3.6,2.1
			l0.6-1.1c0.2-0.3,0.5-0.5,0.9-0.5c0.1,0,0.2,0,0.3,0c0.1,0,0.2,0,0.3,0c0.4,0,0.7,0.2,0.9,0.5l0.6,1.1l3.6-2.1l-0.6-1.1
			c-0.2-0.3-0.2-0.7,0-1c0.1-0.2,0.2-0.4,0.3-0.5c0.2-0.3,0.5-0.5,0.9-0.5h1.3v-4.2h-1.3c-0.4,0-0.7-0.2-0.9-0.5
			c-0.1-0.2-0.2-0.4-0.3-0.5c-0.2-0.3-0.2-0.7,0-1L204,43l-3.6-2.1l-0.6,1.1c-0.2,0.3-0.5,0.5-0.9,0.5c-0.1,0-0.2,0-0.3,0
			s-0.2,0-0.3,0c-0.4,0-0.7-0.2-0.9-0.5L196.7,40.9z M198.6,44.9c1.9,0,3.4,1.5,3.4,3.4c0,1.9-1.5,3.4-3.4,3.4
			c-1.9,0-3.4-1.5-3.4-3.4c0,0,0,0,0,0C195.2,46.4,196.7,44.9,198.6,44.9C198.6,44.9,198.6,44.9,198.6,44.9z"/>
		<path id="Path_297" fill="#EBEBEB" d="M-36.9-55.3l-3.3,2.5l0.8,1c0.2,0.3,0.3,0.7,0.1,1c-0.1,0.2-0.2,0.4-0.2,0.6
			c-0.1,0.4-0.4,0.6-0.8,0.7l-1.3,0.2l0.5,4.1l1.3-0.2c0.4,0,0.7,0.1,0.9,0.4c0.1,0.2,0.2,0.3,0.4,0.5c0.2,0.3,0.3,0.7,0.2,1
			l-0.5,1.2l3.8,1.6l0.5-1.2c0.1-0.3,0.5-0.6,0.8-0.6c0.1,0,0.2,0,0.3,0c0.1,0,0.2,0,0.3,0c0.4-0.1,0.7,0.1,1,0.4l0.8,1l3.3-2.5
			l-0.8-1c-0.2-0.3-0.3-0.7-0.1-1c0.1-0.2,0.2-0.4,0.2-0.6c0.1-0.4,0.4-0.6,0.8-0.7l1.3-0.2l-0.5-4.1l-1.3,0.2
			c-0.4,0-0.7-0.1-0.9-0.4c-0.1-0.2-0.2-0.3-0.4-0.5c-0.2-0.3-0.3-0.7-0.2-1l0.5-1.2l-3.8-1.6l-0.5,1.2c-0.1,0.3-0.5,0.6-0.8,0.6
			c-0.1,0-0.2,0-0.3,0s-0.2,0-0.3,0c-0.4,0.1-0.7-0.1-1-0.4L-36.9-55.3z M-34.6-51.5c1.9-0.2,3.6,1.1,3.8,2.9
			c0.2,1.9-1.1,3.6-2.9,3.8c-1.9,0.2-3.6-1.1-3.8-2.9C-37.8-49.6-36.4-51.3-34.6-51.5C-34.6-51.5-34.6-51.5-34.6-51.5L-34.6-51.5z"
			/>
	</g>
	<g id="Group_136" transform="translate(0 67.25)">
		<g id="Group_131" transform="translate(11.001)">
			<path id="Path_298" fill="#EBEBEB" d="M-50.6,2.2c0.2-4.6,0.1-9.3-0.2-13.9c-0.7-9.6-2.1-19-4.4-28.4c-1.2-5.3-2.7-10.4-4.3-15.6
				c0-0.2-0.3-0.1-0.3,0.1c4.8,18.2,8.8,36.9,8.5,55.8c-0.1,5.3-0.7,10.5-1.2,15.7c0,0.1,0.2,0.2,0.3,0.1
				C-51.2,11.5-50.7,6.9-50.6,2.2z"/>
			<path id="Path_299" fill="#EBEBEB" d="M-59.7-55.6c0,0-7.3,18.6-5.7,22.9c0.8,2.4,2.6,4.4,5,5.3c0,0-4.5,6.4-1.3,12.4
				s10.1,5.7,10.5,12.5C-51.2-2.5-50.8-30.9-59.7-55.6z"/>
			<path id="Path_300" fill="#FFFFFF" d="M-52-14.2c0,0,0-0.1,0-0.1c-1-12.7-3.3-25.2-7.1-37.3c0,0-0.1,0-0.1,0
				c1.4,5.4,2.7,10.9,3.8,16.4c-1-0.9-2.2-1.6-3.5-1.9c0,0,0,0,0,0c0,0,0,0,0,0c1.4,0.5,2.6,1.3,3.6,2.4c0.2,1.1,0.4,2.2,0.6,3.2
				c-1.6-1.8-3.9-2.7-6.2-3.6c0,0,0,0,0,0c0,0,0,0,0,0l0,0c2.4,0.8,4.6,2.3,6.3,4.2c0.6,3.1,1,6.2,1.5,9.3c-1.2-1.2-2.7-2.1-4.4-2.5
				c-0.1,0-0.1,0.1,0,0.1c1.7,0.5,3.3,1.5,4.4,2.8c0,0,0,0,0,0c0.1,1.1,0.3,2.2,0.4,3.3c-0.9-0.8-1.9-1.4-3.1-1.8c0,0,0,0,0,0
				c1.1,0.5,2.2,1.2,3.1,2c0,0,0,0,0,0c0.1,1,0.2,2.1,0.3,3.1c-1.6-2-3.8-3.5-6.2-4.4c0,0-0.1,0.1,0,0.1c2.4,1.1,4.5,2.7,6.1,4.7
				c0,0,0.1,0.1,0.2,0c0.2,1.6,0.3,3.2,0.4,4.8c0,0,0,0,0,0C-51.7-10.9-51.8-12.6-52-14.2z"/>
			<path id="Path_301" fill="#FFFFFF" d="M-57.9-39.1c-1.3-0.8-2.8-1.3-4.4-1.4c0,0,0,0.1,0,0.1c1.5,0.3,3,0.8,4.3,1.4
				C-57.8-38.9-57.8-39-57.9-39.1z"/>
			<path id="Path_302" fill="#FFFFFF" d="M-57-19.4c-1-0.6-2.1-1-3.3-1.1c0,0,0,0.1,0,0.1C-59.1-20.2-58-19.9-57-19.4
				C-57-19.3-56.9-19.4-57-19.4z"/>
		</g>
		<g id="Group_132" transform="translate(26.39 22.98)">
			<path id="Path_303" fill="#EBEBEB" d="M-46.8-55.3c-3.1,2.1-5.9,4.6-8.5,7.4c-2.6,2.9-4.6,6.4-5.9,10.1
				c-2.8,7.7-4.3,15.9-4.4,24.1c-0.1,4.5,0.3,9.1,1.3,13.5c0,0.1,0.1,0.1,0.2,0.1c0.1,0,0.1-0.1,0.1-0.1c-1.2-7.8-1.1-15.8,0.1-23.7
				c1.3-7.7,3.2-16,8.1-22.3c2.7-3.4,6-6.1,9.2-8.8C-46.4-55.2-46.6-55.5-46.8-55.3z"/>
			<path id="Path_304" fill="#EBEBEB" d="M-64.5-19.3c1.8-2.8,3.8-5.5,6.2-7.9c3.7-3.7,6.7-6.3,7.2-8.7s-3.7-4.2-3.7-4.2
				s5.1,0.9,6.4-1.2s2.1-14.4,2.1-14.4s-9.2,6.6-13.5,15.8C-64.1-30.7-64.5-19.3-64.5-19.3z"/>
			<path id="Path_305" fill="#FFFFFF" d="M-49.5-52.6c-3.9,3.8-7.8,7.9-10.1,12.9c-0.8,1.7-1.5,3.5-2,5.3c0,0,0,0,0,0
				c-0.1,0.4-0.2,0.7-0.3,1.1c0,0,0,0,0,0.1c-1.1,3.7-2,7.5-2.6,11.4c0,0,0,0,0,0c0.4-1.9,0.8-3.9,1.3-5.8c0,0,0,0,0.1,0
				c0.8-0.3,1.6-0.5,2.4-0.6c0.1,0,0.1-0.1,0-0.1c-0.8,0-1.6,0.2-2.4,0.4c0.4-1.7,0.9-3.5,1.5-5.2c1.8-0.4,3.6-0.7,5.5-0.7
				c0,0,0,0,0,0c-1.8-0.1-3.6,0.1-5.4,0.5c0.1-0.3,0.2-0.6,0.3-0.9c1.2-0.3,2.4-0.5,3.6-0.6c0,0,0,0,0,0c-1.2,0-2.4,0.2-3.6,0.4
				c0.5-1.5,1-2.9,1.6-4.4c0.5-1.2,1.1-2.3,1.7-3.4c1-0.2,2-0.4,2.9-0.5c0,0,0,0,0,0c-0.9-0.1-1.9,0-2.8,0.3c0.5-0.8,1-1.5,1.5-2.3
				l0,0c2-0.6,4.2-0.8,6.3-0.5c0,0,0.1-0.1,0-0.1c-2-0.4-4-0.3-6,0.2c0.2-0.3,0.4-0.6,0.7-0.9c1.3-0.4,2.6-0.6,3.9-0.6c0,0,0,0,0,0
				c0,0,0,0,0,0l0,0c-1.2-0.1-2.4,0-3.6,0.3C-53.2-48.6-51.3-50.6-49.5-52.6C-49.3-52.6-49.4-52.7-49.5-52.6z"/>
			<path id="Path_306" fill="#FFFFFF" d="M-49.6-44.2c-0.6-0.1-1.2-0.1-1.8-0.1c0,0-0.1,0-0.1,0.1c0,0,0,0,0.1,0.1
				C-50.8-44.1-50.2-44.2-49.6-44.2C-49.6-44.1-49.6-44.1-49.6-44.2C-49.6-44.2-49.6-44.2-49.6-44.2z"/>
			<path id="Path_307" fill="#FFFFFF" d="M-56.2-32.2c-1,0-1.9,0.2-2.8,0.6c0,0,0,0,0,0c0.9-0.2,1.9-0.3,2.8-0.5
				C-56.2-32.1-56.2-32.2-56.2-32.2C-56.2-32.2-56.2-32.2-56.2-32.2z"/>
			<path id="Path_308" fill="#FFFFFF" d="M-58.2-36.4c-0.4,0-0.8,0-1.2,0.1c0,0,0,0,0,0c0,0,0,0,0,0c0.4,0,0.8,0,1.2-0.1
				C-58.2-36.3-58.2-36.3-58.2-36.4C-58.2-36.4-58.2-36.4-58.2-36.4z"/>
		</g>
		<g id="Group_133" transform="translate(0 36.225)">
			<path id="Path_309" fill="#EBEBEB" d="M-65.1-55.5c3,1,5.9,2.4,8.6,4c2.8,1.8,5.2,4.1,7.1,6.8c4,5.6,7.1,11.9,9.1,18.5
				c1.1,3.7,1.8,7.4,2.1,11.3c0,0.1,0,0.1-0.1,0.1c-0.1,0-0.1,0-0.1-0.1c-0.8-6.6-2.7-13.1-5.6-19.1c-2.8-5.9-6.3-12.2-11.7-16.2
				c-3-2-6.2-3.7-9.5-5C-65.4-55.3-65.3-55.6-65.1-55.5z"/>
			<path id="Path_310" fill="#EBEBEB" d="M-42.5-30.5c-2.1-1.9-4.4-3.6-6.8-5c-3.8-2.1-6.9-3.5-7.8-5.4s2-4.2,2-4.2
				s-3.9,1.9-5.5,0.5s-5-11.2-5-11.2s9,3.2,14.6,9.7S-42.5-30.5-42.5-30.5z"/>
			<path id="Path_311" fill="#FFFFFF" d="M-42.9-32.5c-4.5-8.4-10.5-16-18.7-21.1 M-61.6-53.6c2.1,1.4,4.2,3,6,4.7
				c-1.7-0.1-3.3,0.3-4.8,1c0,0,0,0,0,0c0,0,0,0,0,0c1.6-0.6,3.3-0.9,5-0.8c0,0,0,0,0.1,0c0.3,0.3,0.6,0.6,0.9,0.8
				c-0.9,0-1.7,0.2-2.6,0.3c0,0,0,0,0,0c0,0,0,0,0,0c0.9-0.2,1.8-0.2,2.7-0.2c1.5,1.5,2.9,3.1,4.2,4.8c-0.6-0.1-1.2,0-1.8,0.1
				c0,0,0,0,0,0c0,0,0,0,0,0c0.6-0.1,1.3-0.1,1.9,0c0.2,0.3,0.5,0.6,0.7,0.9c-1.8-0.1-3.7,0.1-5.4,0.5c0,0,0,0,0,0c0,0,0,0,0,0
				c1.8-0.4,3.7-0.5,5.6-0.4c0.2,0.3,0.4,0.6,0.7,0.9c-1.1,0-2.2,0.1-3.2,0.4c0,0,0,0.1,0,0.1c1.1-0.2,2.2-0.3,3.4-0.3
				c1,1.3,1.9,2.7,2.8,4.1c-0.5-0.1-1-0.1-1.4,0.1c0,0,0,0,0,0c0,0,0,0,0,0c0.5,0,1,0,1.5,0.1c0.8,1.2,1.6,2.5,2.3,3.8
				c0.1,0.1,0.2,0,0.2-0.1L-61.6-53.6z"/>
			<path id="Path_312" fill="#FFFFFF" d="M-49.9-39.5c-0.9-0.1-1.8,0-2.6,0.3c0,0,0,0,0,0C-51.6-39.3-50.8-39.4-49.9-39.5
				C-49.9-39.4-49.9-39.4-49.9-39.5C-49.9-39.5-49.9-39.5-49.9-39.5z"/>
			<path id="Path_313" fill="#FFFFFF" d="M-57.7-49.8c-0.4,0-0.8,0-1.2,0.1c0,0,0,0.1,0,0.1c0.4,0,0.8,0,1.2,0
				C-57.7-49.7-57.7-49.7-57.7-49.8C-57.7-49.7-57.7-49.8-57.7-49.8L-57.7-49.8z"/>
		</g>
		<g id="Group_135" transform="translate(14.481 60.872)">
			<g id="Group_134" transform="translate(0 1.882)">
				<path id="Path_314" fill="#DBDBDB" d="M-45.4-29.2h-20.3l2.9-21.2l0.7-5.4h13l0.7,5.4L-45.4-29.2z"/>
				<path id="Path_315" fill="#C7C7C7" d="M-48.3-50.3h-14.5l0.7-5.4h13L-48.3-50.3z"/>
			</g>
			<rect id="Rectangle_222" x="-63.9" y="-55.7" fill="#DBDBDB" width="16.7" height="4.6"/>
		</g>
	</g>
</g>
<g id="Floor" transform="translate(67.224 212.319)">
	
		<line id="Line_80" fill="none" stroke="#263238" stroke-linecap="round" stroke-linejoin="round" x1="-65.6" y1="-55.7" x2="226.1" y2="-55.7"/>
</g>
<g id="Shadow" transform="translate(76.478 217.928)">
	<g id="Group_137" transform="translate(0)">
		<ellipse id="Ellipse_26" fill="#EBEBEB" cx="71.9" cy="-40.7" rx="137.5" ry="15.1"/>
	</g>
</g>
<g id="Group_153" transform="translate(0 40.532)">
	<g id="Group_144" transform="translate(24.396 8.74)">
		<g id="Group_141" transform="translate(31.482 78.876)">
			<path id="Path_316" fill="#EB9481" d="M60.5,46.6c-1.1,0.4-33.2,0.5-34.4-0.3c-0.5-0.3-0.8-5-0.9-10.6c0-1.2-0.1-2.5-0.1-3.8
				l-2.6-17.1l21.4-0.1l2,17.1l-0.1,3.8c0,0,12.3,5.4,13.5,6.4S61.6,46.2,60.5,46.6z"/>
			<path id="Path_317" fill="#FFFFFF" d="M60.5,46.6c-1.1,0.4-33.2,0.5-34.4-0.3c-0.6-0.4-0.9-7.2-1-14.4l20.8-0.1l-0.1,3.8
				c0,0,12.3,5.4,13.5,6.4S61.6,46.2,60.5,46.6z"/>
			<g id="Group_140" transform="translate(2.702 15.265)">
				<path id="Path_318" fill="#A6A6A6" d="M57.8,31.4c-1.1,0.4-33.2,0.5-34.4-0.3c-0.5-0.3-0.8-5-0.9-10.6l20.7-0.1
					c0,0,12.3,5.4,13.5,6.4S58.9,31,57.8,31.4z"/>
				<g id="Group_139" transform="translate(2.049)">
					<g id="Group_138" transform="translate(0 6.119)">
						<path id="Path_319" fill="#263238" d="M55.3,24c-5.4-0.1-27.1-0.1-32.4,0.2c0,0,0,0,0,0C28.2,24.5,49.9,24.2,55.3,24
							C55.4,24,55.4,24,55.3,24z"/>
						<path id="Path_320" fill="#263238" d="M52.6,19.5c-1.2,0-2.4,0.5-3.2,1.3c-0.8,0.8-1.2,1.8-1.2,2.9c0,0,0.1,0,0.1,0
							C48.6,21.5,50.4,19.8,52.6,19.5C52.6,19.6,52.6,19.6,52.6,19.5C52.6,19.5,52.6,19.5,52.6,19.5z"/>
						<path id="Path_321" fill="#263238" d="M43.2,14.8c-2.3-0.1-4.5,0.8-6,2.5c-0.1,0.1,0,0.1,0.1,0.1c1.9-1,3.9-1.8,5.9-2.4
							c0.1,0,0.1-0.1,0.1-0.2C43.3,14.8,43.2,14.7,43.2,14.8z"/>
						<path id="Path_322" fill="#263238" d="M44.8,15.4c-2.3-0.1-4.5,0.8-6,2.5C38.8,18,38.9,18,39,18c1.9-1,3.9-1.8,5.9-2.4
							c0.1,0,0.1-0.1,0.1-0.2C44.9,15.4,44.9,15.4,44.8,15.4z"/>
						<path id="Path_323" fill="#263238" d="M46.5,16c-2.3-0.1-4.5,0.8-6,2.5c-0.1,0.1,0,0.1,0.1,0.1c1.9-1,3.9-1.8,5.9-2.4
							c0.1,0,0.1-0.1,0.1-0.2C46.6,16.1,46.5,16,46.5,16z"/>
						<path id="Path_324" fill="#263238" d="M48.2,16.7c-2.3-0.1-4.5,0.8-6,2.5c-0.1,0.1,0,0.1,0.1,0.1c1.9-1,3.9-1.8,5.9-2.4
							c0.1,0,0.1-0.1,0.1-0.2C48.3,16.7,48.2,16.7,48.2,16.7z"/>
						<path id="Path_325" fill="#263238" d="M24.3,19.1c-1,0-1.8,0.9-1.8,1.9c0,1,0.8,1.8,1.8,1.8c1,0,1.8-0.9,1.8-1.9
							C26.1,19.9,25.3,19.1,24.3,19.1z"/>
					</g>
					<path id="Path_326" fill="#263238" d="M45.5,15.1c-1.1-0.9-2.5,0-3.1,0.9c-1.1,1.6-1.8,3.5-1.9,5.5c0,0,0,0.1,0.1,0.1
						c0,0,0,0,0,0c0,0.1,0.2,0.2,0.3,0.2c0,0,0.1,0,0.1,0c1.5-1.1,3.3-2,4.4-3.5C46,17.4,46.5,16,45.5,15.1z M42.8,19.7
						c-0.7,0.5-1.5,1-2.2,1.6c0.3-1.1,0.7-2.1,1.2-3.2c0.2-0.5,0.5-1,0.8-1.5c0.5-0.7,2.6-2.5,2.8-0.2
						C45.5,17.8,43.7,19.1,42.8,19.7L42.8,19.7z"/>
					<path id="Path_327" fill="#263238" d="M35.1,22.4c1.9,0.3,3.8-0.3,5.6-0.6c0.1,0,0.2-0.2,0.2-0.3c0,0,0-0.1,0-0.1
						c0,0,0-0.1,0-0.1c0,0,0,0,0,0c-1.5-1.3-3.3-2.2-5.2-2.6c-1.1-0.2-2.7,0.1-2.9,1.5C32.6,21.5,34,22.2,35.1,22.4z M33.8,21.2
						c-1.5-1.8,1.3-2,2.1-1.8c0.5,0.1,1.1,0.3,1.6,0.5c1.1,0.4,2.1,0.9,3.1,1.5c-0.9,0.1-1.8,0.3-2.7,0.4
						C36.7,21.8,34.6,22.2,33.8,21.2L33.8,21.2z"/>
				</g>
			</g>
		</g>
		<g id="Group_143">
			<path id="Path_328" fill="#37474F" d="M22.5,14.7c0,0,24.9,42.3,25.5,45.3c1,4.6,6.4,49.7,6.4,49.7l25.9-0.5
				c0,0-4.5-39.8-8.7-52.9c-3-9.4-25-40.7-25-40.7L22.5,14.7z"/>
			<g id="Group_142" transform="translate(4.159 3.862)">
				<path id="Path_329" fill="#263238" d="M73.8,101.4c-3.7,0-16.9-0.2-21.8,0.3c0,0,0,0.1,0,0.1c1.7,0.2,18.1-0.1,21.8-0.3
					C73.9,101.5,73.9,101.5,73.8,101.4C73.9,101.4,73.9,101.4,73.8,101.4z"/>
				<path id="Path_330" fill="#263238" d="M22.6,14.8c1.6,2.6,3.4,5.1,5,7.6s3.3,5.1,5,7.6c3.3,5.1,6.5,10.3,9.6,15.5
					c1.5,2.4,2.8,4.9,3.9,7.5c1,2.6,1.7,5.4,2.2,8.1c0.5,2.8,0.8,5.6,1.2,8.4c0.3,3,0.7,6,1,9l2,18.3c0.1,0.8,0.2,1.5,0.2,2.3
					c0,0.1-0.2,0.1-0.2,0c-0.8-6.1-1.4-12.2-2.1-18.2l-1-9.1c-0.3-2.8-0.6-5.6-1.1-8.4c-0.4-2.8-1-5.5-1.8-8.1
					c-0.9-2.8-2.1-5.4-3.6-7.9c-3-5.2-6.2-10.3-9.4-15.3c-3.2-5.1-6.4-10.2-9.8-15.2C23.3,16,22.9,15.4,22.6,14.8
					C22.4,14.8,22.5,14.7,22.6,14.8z"/>
			</g>
		</g>
	</g>
	<g id="Group_152">
		<g id="Group_148" transform="translate(0 80.624)">
			<path id="Path_331" fill="#EB9481" d="M55,56.1C53.8,56,23.4,43.7,22.5,42.5c0-0.1-0.1-0.1,0-0.2c0-1,2.1-4.7,3.9-9.5
				c0.1-0.3,0.9-1.7,2-3.7c3-5.3,8.3-14.4,8.3-14.4l19.9,7.9L47,36.9l-1.5,3.5c0,0,9.3,9.7,10.1,11S56.2,56.2,55,56.1z"/>
			<path id="Path_332" fill="#FFFFFF" d="M55,56.1C53.8,56,23.4,43.7,22.5,42.5c0-0.1-0.1-0.1,0-0.2c0-1,2.1-4.7,3.9-9.5
				c0.1-0.3,0.9-1.7,2-3.7L47,36.9l-1.5,3.5c0,0,9.3,9.7,10.1,11S56.2,56.2,55,56.1z"/>
			<g id="Group_147" transform="translate(0 18.016)">
				<path id="Path_333" fill="#A6A6A6" d="M55,38.1C53.8,38,23.4,25.7,22.5,24.5c-0.3-0.4,1-4.6,3.8-9.8l19.2,7.6
					c0,0,9.3,9.7,10.1,11S56.2,38.2,55,38.1z"/>
				<g id="Group_146" transform="translate(2.466 3.538)">
					<g id="Group_145" transform="translate(0 2.144)">
						<path id="Path_334" fill="#263238" d="M52.6,31c-4.9-2.1-25.1-10.2-30.1-11.9c0,0-0.1,0,0,0C27.3,21.4,47.5,29.3,52.6,31
							C52.7,31.2,52.7,31.1,52.6,31z"/>
						<path id="Path_335" fill="#263238" d="M51.7,25.9c-1.1-0.5-2.4-0.5-3.5,0c-1,0.4-1.8,1.2-2.2,2.2c0,0,0,0.1,0.1,0
							C47.3,26.3,49.6,25.4,51.7,25.9C51.7,26,51.7,26,51.7,25.9C51.8,25.9,51.8,25.9,51.7,25.9L51.7,25.9z"/>
						<path id="Path_336" fill="#263238" d="M44.8,18c-2.1-1-4.4-0.9-6.5,0.1c-0.1,0,0,0.1,0.1,0.1c2.1-0.2,4.2-0.2,6.4,0
							c0.1,0,0.1,0,0.1-0.1C44.9,18,44.9,18,44.8,18z"/>
						<path id="Path_337" fill="#263238" d="M46.1,19.2c-2.1-1-4.4-0.9-6.5,0.1c-0.1,0,0,0.1,0.1,0.1c2.1-0.2,4.2-0.2,6.4,0
							c0.1,0,0.1,0,0.1-0.1C46.2,19.3,46.2,19.2,46.1,19.2z"/>
						<path id="Path_338" fill="#263238" d="M47.4,20.4c-2.1-1-4.4-0.9-6.5,0.1c-0.1,0,0,0.1,0.1,0.1c2.1-0.2,4.2-0.2,6.4,0
							c0.1,0,0.1,0,0.1-0.1C47.5,20.5,47.5,20.4,47.4,20.4z"/>
						<path id="Path_339" fill="#263238" d="M48.7,21.6c-2.1-1-4.4-0.9-6.5,0.1c-0.1,0,0,0.1,0.1,0.1c2.1-0.2,4.2-0.2,6.4,0
							c0.1,0,0.1,0,0.1-0.1C48.8,21.7,48.8,21.6,48.7,21.6z"/>
						<path id="Path_340" fill="#263238" d="M25.7,14.9c-1-0.3-2,0.2-2.4,1.1c-0.3,0.9,0.1,1.9,1,2.3c1,0.3,2-0.2,2.4-1.1
							C27,16.3,26.6,15.3,25.7,14.9z"/>
					</g>
					<path id="Path_341" fill="#263238" d="M49.1,15.6c-0.7-1.2-2.3-0.9-3.2-0.3c-1.6,1.1-3,2.6-3.9,4.4c0,0,0,0.1,0,0.1
						c0,0,0,0,0,0c0,0.2,0.1,0.3,0.3,0.3c1.8-0.4,3.8-0.6,5.4-1.6C48.7,17.9,49.7,16.8,49.1,15.6z M45,18.9
						c-0.9,0.2-1.8,0.4-2.7,0.7c0.7-0.9,1.5-1.7,2.3-2.5c0.4-0.4,0.8-0.7,1.3-1.1c0.7-0.5,3.3-1.4,2.7,0.9
						C48.2,18.1,46,18.6,45,18.9L45,18.9z"/>
					<path id="Path_342" fill="#263238" d="M36.7,18.5c1.6,1,3.6,1.2,5.4,1.6c0.2,0,0.3-0.1,0.3-0.3c0,0,0.1,0,0-0.1c0,0,0,0,0,0
						c-0.9-1.8-2.2-3.3-3.8-4.4c-1-0.6-2.6-0.9-3.2,0.3C34.8,16.8,35.8,17.9,36.7,18.5z M36,16.8c-0.7-2.3,2-1.4,2.7-0.9
						c0.4,0.3,0.9,0.7,1.3,1.1c0.8,0.8,1.6,1.6,2.3,2.5c-0.9-0.3-1.8-0.4-2.7-0.7C38.5,18.6,36.4,18.1,36,16.8L36,16.8z"/>
				</g>
			</g>
		</g>
		<g id="Group_151" transform="translate(3.805)">
			<path id="Path_343" fill="#37474F" d="M44.8,116.8l-22.3-9c0,0,27.6-40.6,27.9-43.7c0.2-2.7-12-26-12.4-32.8
				C37.5,25,40,18.9,44.8,14.8l23,9.8c-1.6,2.4-3.7,4.5-6.3,6c0,0,11.8,27,11.1,35.2C72,74.2,44.8,116.8,44.8,116.8z"/>
			<g id="Group_150" transform="translate(4.133 1.971)">
				<path id="Path_344" fill="#263238" d="M41.6,110.6c-3.2-1.4-2.3-1-5.5-2.4c-1.6-0.7-12-5-13.6-5.4c0,0,0,0,0,0c0,0,0,0,0,0
					c1.4,0.8,11.9,5,13.5,5.6C39.2,109.8,38.3,109.4,41.6,110.6C41.6,110.7,41.6,110.6,41.6,110.6C41.7,110.6,41.6,110.6,41.6,110.6
					z"/>
				<g id="Group_149" transform="translate(31.657 8.068)">
					<path id="Path_345" fill="#263238" d="M29.5,20c-2.4,0.6-4.7,1.3-7,2.3c0,0-0.1,0.1,0,0.1c0,0,0.1,0.1,0.1,0
						c2.4-0.7,4.7-1.3,7.1-2.1c0.1,0,0.1-0.1,0.1-0.2S29.6,20,29.5,20L29.5,20z"/>
					<path id="Path_346" fill="#263238" d="M26.8,19.1c-0.2,0.4-0.4,0.8-0.6,1.2c-0.2,0.3-0.3,0.7-0.3,1c0,0.1,0.1,0.1,0.1,0
						c0.2-0.3,0.4-0.6,0.6-1c0.2-0.4,0.4-0.8,0.6-1.1C27.3,19,26.9,18.8,26.8,19.1z"/>
					<path id="Path_347" fill="#263238" d="M27.1,16.9c0.1-0.4,0.3-0.7,0.4-1.1s0.3-0.7,0.5-1.1c0-0.1,0.1,0,0.1,0
						c-0.1,0.4-0.2,0.7-0.3,1.1s-0.2,0.7-0.4,1.1c-0.2,0.7-0.5,1.3-0.8,2c0.4,0,0.8,0,1.1-0.2c0.4-0.2,0.6-0.6,0.8-0.9
						c0.2-0.4,0.4-0.8,0.6-1.2c0.3-0.4,0.5-0.9,0.6-1.3c0-0.1,0.1,0,0.1,0c-0.3,1-0.7,1.9-1.2,2.8c-0.2,0.4-0.4,0.7-0.8,0.9
						c-0.4,0.1-0.9,0.1-1.3,0.1c-0.1,0-0.1,0-0.1-0.1C26.6,18.4,26.8,17.6,27.1,16.9z"/>
				</g>
				<path id="Path_348" fill="#263238" d="M57.8,29.5c0.8,1.7,1.5,3.5,2.3,5.2c0.7,1.7,1.4,3.4,2.1,5.1c1.4,3.5,2.6,7,3.7,10.6
					c0.5,1.8,1,3.5,1.5,5.3c0.5,1.8,0.8,3.6,1.1,5.5c0.2,1.8,0,3.7-0.5,5.5c-0.5,1.8-1.2,3.5-2,5.1c-0.5,1-0.7,0.9-0.4,0.4
					c0.7-1.5,2.5-6,2.4-9.8c-0.1-1.8-0.4-3.6-0.9-5.4c-0.4-1.8-0.9-3.6-1.4-5.4c-1-3.5-2.2-7-3.5-10.4c-0.7-1.9-1.4-3.8-2.2-5.8
					S58.5,31.6,57.8,29.5C57.7,29.5,57.7,29.5,57.8,29.5C57.7,29.4,57.7,29.5,57.8,29.5z"/>
				<path id="Path_349" fill="#263238" d="M40.8,23.8c0.4-0.1,1,0.1,1.4,0.2c1,0.2,2.1,0.2,3.1,0.1c0.5,0,1-0.2,1.5-0.4
					c0.8-0.6,1.4-1.2,1.9-2c0.6-0.8,1.1-1.7,1.5-2.6c0-0.1,0.1,0,0.1,0c-0.2,0.5-0.3,1.1-0.5,1.6c-0.2,0.5-0.5,1-0.7,1.4
					c-0.5,0.9-1.1,1.7-2,2.3c-1,0.4-2.1,0.6-3.1,0.4c-0.6,0-1.2-0.1-1.8-0.2c-0.4-0.1-1.1-0.2-1.4-0.5
					C40.7,23.9,40.7,23.8,40.8,23.8C40.8,23.8,40.8,23.8,40.8,23.8z"/>
				<path id="Path_350" fill="#263238" d="M24.7,101.5C28.4,96,32,90.4,35.5,84.8c3.5-5.6,7-11.3,10.4-17.1c0.9-1.3,1.7-2.8,2.3-4.2
					c0.5-1.6,0.4-3.3-0.3-4.9c-1-2.9-2.1-5.8-3.4-8.7c-1.3-2.8-2.7-5.6-4-8.4c-1.4-2.7-2.7-5.6-3.8-8.5c-1.1-2.7-1.3-5.7-0.6-8.6
					c0.9-2.8,2.2-5.5,4-7.8c0.4-0.6,0.9-1.3,1.3-1.9c0,0,0.1,0,0.1,0.1c-2,2.5-3.6,5.2-4.8,8.1c-0.6,1.5-0.9,3-0.9,4.5
					c0,1.6,0.2,3.1,0.7,4.6c1,2.9,2.2,5.7,3.7,8.4c1.4,2.8,2.7,5.6,4.1,8.4c1.3,2.8,2.5,5.7,3.6,8.7c0.5,1.3,0.9,2.7,0.9,4.1
					c-0.1,1.5-0.7,3-1.5,4.3c-3.3,5.7-6.8,11.3-10.3,16.9c-3.5,5.6-7.1,11.2-10.7,16.7c-0.5,0.7-0.9,1.4-1.4,2.1
					C24.8,101.7,24.6,101.6,24.7,101.5z"/>
			</g>
		</g>
	</g>
</g>
<path id="Path_351" fill="#EB9481" d="M72.9,39.2c2.1,4.6,12.6,10.8,17.5,11.5c3.5,0.5,14.3,0.7,17.9,0.1c4.3-0.7,1-12.3-1.5-12
	c-7,0.8-12.9,1.7-14.8,1.7c-2.3,0-14.6-4-16.1-4.5C72.2,34.7,71.7,36.6,72.9,39.2z"/>
<g id="Group_154">
	<path id="Path_352" fill="#FF4343" d="M72.9,40.4c2.6,3.9,11.4,10.2,11.4,10.2l1.2-2.7l4-8.9c0,0-8-2.5-13.3-3.7
		c-0.6-0.1-1.3-0.2-1.9-0.3C70.9,35,70.7,37.1,72.9,40.4z"/>
</g>
<path id="Path_353" fill="#263238" d="M72.9,40.4c2.6,3.9,11.4,10.2,11.4,10.2l1.2-2.7c-3.3-3.8-8.3-9.5-11.2-12.8
	C70.9,35,70.7,37.1,72.9,40.4z"/>
<path id="Path_354" fill="#263238" d="M82.7,48.9c0.7-1.6,3.6-8.2,4.4-9.6c0.1-0.1,0.1-0.1,0.1,0C85.9,42.6,84.4,45.8,82.7,48.9
	C82.8,48.9,82.7,48.9,82.7,48.9z"/>
<g id="Group_156" transform="translate(34.003 3.045)">
	<path id="Path_355" fill="#EB9481" d="M71.5,35.9c4.3-0.6,9.5-1.5,14,0.4c0.5,0.2,0.9,0.6,1.2,1c2,0.8,2.2,2,2.2,2
		c0.9,0.6,1.5,1.5,1.7,2.6c0,0,2.4,1,2,2.5c-0.4,1.7-3.6,0-6,0.1c-5.4,0.3-13,2.3-14.5,2.6L71.5,35.9z"/>
	<path id="Path_356" fill="#263238" d="M80.7,40.9c3.3-0.3,6.7,0,9.8,1c0,0,0,0,0.1,0c0,0,0,0,0-0.1C87.4,40.6,84,40.3,80.7,40.9
		C80.6,40.9,80.6,40.9,80.7,40.9z"/>
	<path id="Path_357" fill="#263238" d="M80,37.7c3,0,6,0.6,8.8,1.7c0,0,0,0,0,0C86.2,38,83.1,37.4,80,37.7
		C79.9,37.6,79.9,37.7,80,37.7z"/>
	<path id="Path_358" fill="#263238" d="M79.7,36c2.4,0.1,4.7,0.6,6.9,1.4c0,0,0,0,0,0C84.5,36.3,82.1,35.8,79.7,36
		C79.6,35.9,79.6,35.9,79.7,36z"/>
	<path id="Path_359" fill="#EB9481" d="M80.1,45.4c-0.7,0.3-0.5,0.7,0.8,1s6.8,0.4,6.6,2.3s-7.9,1.7-10,1c-1.9-0.7-3.7-1.5-5.4-2.5
		C73.6,46.9,77.2,45.9,80.1,45.4z"/>
</g>
<path id="Path_360" fill="#263238" d="M78.6,46.5c0,0.8-0.1,1.7-0.2,2.5c0,0,0-0.1,0-0.1c0.2-0.4,0.3-0.9,0.5-1.3c0,0,0,0,0,0
	c-0.1,0.5-0.2,0.9-0.4,1.3c-0.1,0.2-0.2,0.4-0.3,0.6c-0.1,0.4-0.1,0.7-0.2,1.1c-0.1,0.7-0.8,3.6-0.9,4.1c0,0.1-0.2,0.1-0.1,0
	c0-0.5,0.6-3.6,0.7-4.3C77.9,49.1,78.2,47.8,78.6,46.5C78.5,46.4,78.6,46.4,78.6,46.5z"/>
<path id="Path_361" fill="#FF4343" d="M73.6,68.3c-1.3,0.7-2.9,1.7-10.4,0.2c-0.5-0.1-0.9-0.2-1.4-0.3c-7-2.1-15.3-10.3-15.8-10.9
	c0,0,11.1-18,25.2-23.6c1.8-0.7,4.6,0.6,6.3,2.3c0.6,0.6,1.8,5,1.3,8.6S74.8,67.6,73.6,68.3z"/>
<g id="Group_158" transform="translate(3.819 2.326)">
	
		<line id="Line_81" fill="none" stroke="#FFFFFF" stroke-width="0.5" stroke-miterlimit="10" x1="68.8" y1="42.1" x2="68.4" y2="44.3"/>
	
		<line id="Line_82" fill="none" stroke="#FFFFFF" stroke-width="0.5" stroke-miterlimit="10" x1="63.9" y1="54.3" x2="63.6" y2="56.5"/>
	
		<line id="Line_83" fill="none" stroke="#FFFFFF" stroke-width="0.5" stroke-miterlimit="10" x1="55.7" y1="45.1" x2="55.4" y2="47.3"/>
	
		<line id="Line_84" fill="none" stroke="#FFFFFF" stroke-width="0.5" stroke-miterlimit="10" x1="71.9" y1="53.7" x2="71.6" y2="55.9"/>
	
		<line id="Line_85" fill="none" stroke="#FFFFFF" stroke-width="0.5" stroke-miterlimit="10" x1="61.4" y1="43.5" x2="63.6" y2="43.8"/>
	
		<line id="Line_86" fill="none" stroke="#FFFFFF" stroke-width="0.5" stroke-miterlimit="10" x1="52.1" y1="52.3" x2="54.3" y2="52.6"/>
	
		<line id="Line_87" fill="none" stroke="#FFFFFF" stroke-width="0.5" stroke-miterlimit="10" x1="63" y1="61.9" x2="65.3" y2="62.2"/>
	
		<line id="Line_88" fill="none" stroke="#FFFFFF" stroke-width="0.5" stroke-miterlimit="10" x1="49.2" y1="58.4" x2="51.4" y2="58.7"/>
	
		<line id="Line_89" fill="none" stroke="#FFFFFF" stroke-width="0.5" stroke-miterlimit="10" x1="68.7" y1="33.5" x2="70.9" y2="33.8"/>
	
		<line id="Line_90" fill="none" stroke="#FFFFFF" stroke-width="0.5" stroke-miterlimit="10" x1="66" y1="36.5" x2="64.2" y2="37.9"/>
	
		<line id="Line_91" fill="none" stroke="#FFFFFF" stroke-width="0.5" stroke-miterlimit="10" x1="51.2" y1="45.2" x2="49.4" y2="46.6"/>
	
		<line id="Line_92" fill="none" stroke="#FFFFFF" stroke-width="0.5" stroke-miterlimit="10" x1="69.6" y1="49.2" x2="67.8" y2="50.5"/>
	
		<line id="Line_93" fill="none" stroke="#FFFFFF" stroke-width="0.5" stroke-miterlimit="10" x1="57.7" y1="56.7" x2="55.9" y2="58.1"/>
	
		<line id="Line_94" fill="none" stroke="#FFFFFF" stroke-width="0.5" stroke-miterlimit="10" x1="74.2" y1="38.9" x2="72.4" y2="40.3"/>
	
		<line id="Line_95" fill="none" stroke="#FFFFFF" stroke-width="0.5" stroke-miterlimit="10" x1="74" y1="47.6" x2="72.6" y2="45.8"/>
	
		<line id="Line_96" fill="none" stroke="#FFFFFF" stroke-width="0.5" stroke-miterlimit="10" x1="47.4" y1="53.6" x2="46" y2="51.8"/>
	
		<line id="Line_97" fill="none" stroke="#FFFFFF" stroke-width="0.5" stroke-miterlimit="10" x1="70.7" y1="60.8" x2="69.4" y2="59"/>
	
		<line id="Line_98" fill="none" stroke="#FFFFFF" stroke-width="0.5" stroke-miterlimit="10" x1="59" y1="40.4" x2="57.7" y2="38.6"/>
	
		<line id="Line_99" fill="none" stroke="#FFFFFF" stroke-width="0.5" stroke-miterlimit="10" x1="59.2" y1="64.8" x2="57.9" y2="63"/>
	
		<line id="Line_100" fill="none" stroke="#FFFFFF" stroke-width="0.5" stroke-miterlimit="10" x1="61.2" y1="50.4" x2="59.9" y2="48.6"/>
</g>
<g id="Group_172" transform="translate(25.167)">
	<g id="Group_162" transform="translate(0 12.822)">
		<g id="Group_161">
			<path id="Path_362" fill="#EB9481" d="M49.7,28c-1.8-0.3-3.5-4.1-3.7-6.6c0-0.2,0.8-1.5,1.8-3.3c0.6-1,1.2-2.2,1.7-3.3
				c0.1-0.2,0.7,0.5,0.7,0.5l1.3,1l4.2,3.3c-1,1.2-1.9,2.5-2.6,4C53.1,23.7,53,23.8,53,24c0,0,0,0.1,0,0.1
				C52.7,25,51.5,28.3,49.7,28z"/>
		</g>
		<path id="Path_363" fill="#263238" d="M53,24C53,24,53,24.1,53,24c-0.3,0-0.5-0.1-0.8-0.2c-4.6-2.2-2.6-8.4-2.6-8.4l1.8,0.9
			l4.2,3.3c-1,1.2-1.9,2.5-2.6,4C53.1,23.7,53,23.9,53,24z"/>
	</g>
	<g id="Group_171" transform="translate(1.401)">
		<path id="Path_364" fill="#263238" d="M59.2,19.1c1.3,0.8,2,2.2,2.1,3.7c0,1.7-0.4,3.3-1.2,4.8C59.9,27.8,59.2,19.1,59.2,19.1z"/>
		<g id="Group_163" transform="translate(1.771 2.301)">
			<path id="Path_365" fill="#EB9481" d="M46.9,18.1c-1.3,2.5-1.2,10.5,0.4,12.5c2.3,3,6.8,4,9.5,1.1c2.6-2.8,2.3-13.2,0.5-15.1
				C54.5,13.7,48.8,14.3,46.9,18.1z"/>
		</g>
		<path id="Path_366" fill="none" d="M48.9,32.8L48.9,32.8"/>
		<g id="Group_168" transform="translate(7.902 8.864)">
			<g id="Group_164" transform="translate(0.361 2.549)">
				<path id="Path_367" fill="#263238" d="M47.2,15.3C47.2,15.3,47.1,15.3,47.2,15.3c0,0.6-0.1,1.2-0.6,1.4c0,0,0,0,0,0
					C47.2,16.6,47.3,15.8,47.2,15.3z"/>
				<path id="Path_368" fill="#263238" d="M46.7,14.8c-0.9,0-0.9,1.7-0.1,1.7S47.4,14.8,46.7,14.8z"/>
			</g>
			<g id="Group_165" transform="translate(4.449 2.525)">
				<path id="Path_369" fill="#263238" d="M46,15.3C46,15.3,46.1,15.3,46,15.3c0,0.6,0.1,1.2,0.6,1.4c0,0,0,0,0,0
					C46,16.6,45.9,15.8,46,15.3z"/>
				<path id="Path_370" fill="#263238" d="M46.5,14.8c0.9-0.1,0.9,1.7,0.1,1.7S45.8,14.8,46.5,14.8z"/>
			</g>
			<path id="Path_371" fill="#263238" d="M46.5,16c0.2-0.1,0.5-0.1,0.7-0.2c0.3,0,0.5-0.2,0.6-0.4c0.1-0.1,0.1-0.3-0.1-0.4
				c-0.3-0.2-0.6-0.2-0.9-0.1c-0.3,0.1-0.6,0.3-0.8,0.6c-0.1,0.2,0,0.4,0.2,0.5C46.3,16,46.4,16,46.5,16z"/>
			<path id="Path_372" fill="#263238" d="M51.6,16.7c-0.2-0.1-0.5-0.1-0.7-0.2c-0.3,0-0.5-0.1-0.7-0.3c-0.1-0.1-0.1-0.3,0-0.4
				c0.3-0.2,0.6-0.3,0.9-0.2c0.3,0.1,0.6,0.3,0.8,0.5c0.1,0.2,0.1,0.4-0.1,0.5C51.8,16.7,51.7,16.8,51.6,16.7z"/>
			<path id="Path_373" fill="#263238" d="M46.3,23c0.1,0.1,0.3,0.3,0.4,0.3c0.2,0,0.4,0,0.6-0.1c0,0,0,0,0,0c0,0,0,0,0,0
				c-0.2,0.2-0.4,0.3-0.7,0.3C46.4,23.4,46.3,23.2,46.3,23C46.2,23,46.3,23,46.3,23z"/>
			<g id="Group_166" transform="translate(1.099 0.689)">
				<path id="Path_374" fill="#263238" d="M48.3,20c0,0,0,0.8,0,1.2c-0.7-0.1-1.5-0.1-2.2,0.1c-0.2,0-0.2-0.1,0-0.2
					c0.6-0.3,1.2-0.4,1.9-0.2c0-0.1-0.1-1.2,0-1.2c0.3,0.1,0.6,0.2,0.8,0.3c0-1.7-0.3-3.4-0.2-5c0,0,0-0.1,0.1,0c0,0,0,0,0,0
					c0.3,1.8,0.5,3.6,0.5,5.4C49.2,20.4,48.5,20.1,48.3,20z"/>
			</g>
			<g id="Group_167" transform="translate(0.673 6.812)">
				<path id="Path_375" fill="#263238" d="M47.7,14.8c-0.2,0.5-0.5,0.9-1,1.2c-0.7,0.3-1-0.4-0.2-0.9C46.8,14.8,47.3,14.7,47.7,14.8
					z"/>
				<path id="Path_376" fill="#FF99BA" d="M46.9,15.8c-0.1,0.1-0.2,0.1-0.3,0.1c-0.7,0.3-0.9-0.3-0.4-0.8
					C46.6,15.2,47,15.3,46.9,15.8z"/>
			</g>
		</g>
		<g id="Group_169" transform="translate(0.945)">
			<path id="Path_377" fill="#263238" d="M47.3,27.1c0.9,0.3,1.9-2.4,2.2-3.4c0.3-0.9,0.5-3.7,0.6-3.9s3.8,2.5,6,1.9
				s3.7-2.6,3.7-3.6s-2.7-3.3-5.1-3.4s-5.6,2.9-5.6,2.9c0.4-0.4,0.7-0.9,1.1-1.4c-0.8,0.2-1.5,0.8-1.9,1.6c0,0,0.3-1.4,0.2-1.4
				s-1.3,1.2-1,2C46.8,19.1,46.2,20,46,21C45.9,22.3,46.3,26.8,47.3,27.1z"/>
			<path id="Path_378" fill="#263238" d="M57.7,21.2c-0.7,0.4-1.4,0.6-2.1,0.7c-0.8,0.1-1.6-0.1-2.4-0.4c-0.8-0.3-1.5-0.7-2.1-1.2
				c-0.6-0.5-1-1-1.6-1.4c-0.1-0.1-0.3,0.1-0.2,0.2c1,1.4,2.4,2.4,4,3C54.8,22.7,56.5,22.3,57.7,21.2C57.7,21.3,57.7,21.2,57.7,21.2
				z"/>
		</g>
		<g id="Group_170" transform="translate(0 9.799)">
			<path id="Path_379" fill="#EB9481" d="M49.2,17.1c0,0-1.4-2.8-2.6-2.3s-0.5,4.3,0.8,5c0.6,0.4,1.5,0.2,1.9-0.4c0,0,0,0,0-0.1
				L49.2,17.1z"/>
			<path id="Path_380" fill="#263238" d="M46.9,15.9C46.8,15.9,46.8,15.9,46.9,15.9C46.8,15.9,46.8,15.9,46.9,15.9
				c0.8,0.6,1.3,1.5,1.4,2.4c-0.2-0.4-0.6-0.6-1-0.4c0,0-0.1,0-0.1,0.1c0,0,0,0.1,0,0.1c0.4-0.1,0.7,0.1,0.9,0.4
				c0.1,0.3,0.2,0.5,0.3,0.8c0,0.1,0.2,0.1,0.2,0v0C48.8,18,48.1,16.2,46.9,15.9z"/>
		</g>
	</g>
</g>
<g id="Group_175" transform="translate(0.849 1.264)">
	<path id="Path_381" fill="#EB9481" d="M65.9,38c-0.9,5.4,4.9,23.7,8.7,27.2c5.6,5.1,16,8.4,19.8,9.5c1.6,0.5,6.2-11.1,4.5-11.8
		c-3.6-1.6-14.6-5.1-15.6-6s-7.4-10-10.2-15.3C69.3,34.5,66.4,35.2,65.9,38z"/>
	<g id="Group_174" transform="translate(23.733 25.792)">
		<path id="Path_382" fill="#EB9481" d="M72.4,36c0,0,4.9,1.2,8.1,2.2c2.1,0.6,4,1.5,5.8,2.7c1.7,1.5,7.7,8.7,6,10.2
			c-1.6,1.4-6-5.5-6-5.5s5,6.6,2.9,7.9s-6.1-7.2-6.1-7.2s5,6.9,2.6,7.8c-1.9,0.7-5.9-6.7-5.9-6.7s4.3,5.9,2.4,6.8
			c-2.1,0.9-6.2-5.7-6.2-5.7c-5.1,1.3-8.1-0.1-10.1-1.4C65.4,46.8,72.4,36,72.4,36z"/>
		<g id="Group_173" transform="translate(13.067 7.253)">
			<path id="Path_383" fill="#263238" d="M71.6,36c0.6,0.7,1.3,1.5,1.8,2.3s1.1,1.6,1.6,2.5c0.6,1.1,1.2,2.3,1.5,3.5
				c-0.9-2-2-4-3.3-5.8C72.7,37.7,72.2,36.9,71.6,36C71.6,36,71.6,36,71.6,36z"/>
			<path id="Path_384" fill="#263238" d="M68.7,38c1.7,1.8,3.1,3.8,4.2,6.1c0,0.1,0,0.1-0.1,0C72.1,43,69.4,39,68.7,38
				C68.7,38,68.7,38,68.7,38z"/>
			<path id="Path_385" fill="#263238" d="M65.9,39.2c1.3,1.4,2.4,3,3.1,4.8c0,0.1,0,0.1-0.1,0C67.9,42.4,67.1,41.1,65.9,39.2
				C65.8,39.2,65.9,39.2,65.9,39.2z"/>
		</g>
	</g>
</g>
<path id="Path_386" fill="#FF4343" d="M72.1,39.6c-4.4-6.2-7-3.9-6.1,2.8c0.7,4.7,1.7,9.3,3,13.8l11.1-5.4
	C80.1,50.9,74.9,43.6,72.1,39.6z"/>
<g id="Group_176" transform="translate(1.41 0.187)">
	
		<line id="Line_101" fill="none" stroke="#FFFFFF" stroke-width="0.5" stroke-miterlimit="10" x1="73.4" y1="41.9" x2="73.8" y2="44.1"/>
	
		<line id="Line_102" fill="none" stroke="#FFFFFF" stroke-width="0.5" stroke-miterlimit="10" x1="66.8" y1="45.7" x2="69.1" y2="45.3"/>
	
		<line id="Line_103" fill="none" stroke="#FFFFFF" stroke-width="0.5" stroke-miterlimit="10" x1="67.1" y1="36" x2="65.8" y2="37.9"/>
	
		<line id="Line_104" fill="none" stroke="#FFFFFF" stroke-width="0.5" stroke-miterlimit="10" x1="76.5" y1="48.6" x2="75.2" y2="50.4"/>
	
		<line id="Line_105" fill="none" stroke="#FFFFFF" stroke-width="0.5" stroke-miterlimit="10" x1="68.8" y1="52.3" x2="67" y2="51"/>
</g>
<path id="Path_387" fill="#263238" d="M73.6,41.5c0.6,0.8,1.2,1.6,1.8,2.4c-0.2-0.4-0.3-0.8-0.4-1.2c0,0,0,0,0,0c0,0,0,0,0,0
	c0.1,0.3,0.3,0.6,0.4,1c0.1,0.2,0.1,0.3,0.2,0.5l0,0.1c0.5,0.6,0.9,1.2,1.4,1.9c0.5,0.8,1.1,1.5,1.6,2.3c0.5,0.8,1.1,1.7,1.6,2.5
	c-0.3,0.2-0.7,0.4-1.1,0.5c-0.1,0.1-0.2,0-0.1-0.1s0.9-0.5,0.9-0.5c-0.5-0.8-1.1-1.5-1.7-2.2s-1.1-1.5-1.6-2.3
	C75.6,44.7,74.6,43.1,73.6,41.5C73.5,41.5,73.6,41.5,73.6,41.5z"/>
<path id="Path_388" fill="#263238" d="M66.3,46.9c0.2,0.3,0.3,0.7,0.5,1c0.1,0.1,0.1,0.3,0.2,0.4c-0.3-1.2-0.5-2.4-0.7-3.6
	c0,0,0,0,0,0c0.5,1.9,1,3.9,1.5,5.8c0.5,1.9,0.9,3.7,1.2,5.6c0.3-0.1,0.7-0.3,1-0.4c-0.4,0.2-0.7,0.4-1.1,0.6
	c-0.6-1.9-1.1-3.9-1.4-5.9c-0.1-0.5-0.2-1.1-0.3-1.6c-0.1-0.3-0.3-0.6-0.4-1C66.5,47.6,66.4,47.3,66.3,46.9
	C66.2,46.9,66.3,46.9,66.3,46.9z"/>
<path id="Path_389" fill="#263238" d="M69.2,54.4c1.5-0.9,7.9-4.2,9.4-4.8c0.1,0,0.2,0,0.1,0.1C75.6,51.4,72.5,53,69.2,54.4
	C69.2,54.5,69.2,54.4,69.2,54.4z"/>
<g id="Group_181">
	<path id="Path_390" fill="#FF4343" d="M245,180.5H98.8L120,60.7h146.1L245,180.5z"/>
	<path id="Path_391" fill="#FF4343" d="M170,48.3h-47.8L120,60.7h51.2L170,48.3z"/>
</g>
<g id="Group_182" opacity="0.1">
	<path id="Path_392" d="M245,180.6H98.9L120,60.7h146.1L245,180.6z"/>
	<path id="Path_393" d="M170,48.3h-47.8L120,60.7h51.2L170,48.3z"/>
</g>
<g id="Group_184" transform="translate(26.932 0.889)">
	<line id="Line_106" fill="none" stroke="#263238" stroke-miterlimit="10" x1="90" y1="52.4" x2="90" y2="48.3"/>
	<line id="Line_107" fill="none" stroke="#263238" stroke-miterlimit="10" x1="85.8" y1="53.7" x2="83.7" y2="50"/>
	<line id="Line_108" fill="none" stroke="#263238" stroke-miterlimit="10" x1="82.7" y1="56.8" x2="79.1" y2="54.8"/>
	<line id="Line_109" fill="none" stroke="#263238" stroke-miterlimit="10" x1="81.7" y1="61.1" x2="77.5" y2="61.1"/>
	<line id="Line_110" fill="none" stroke="#263238" stroke-miterlimit="10" x1="82.9" y1="65.4" x2="79.3" y2="67.5"/>
	<line id="Line_111" fill="none" stroke="#263238" stroke-miterlimit="10" x1="86.1" y1="68.5" x2="84" y2="72.1"/>
	<line id="Line_112" fill="none" stroke="#263238" stroke-miterlimit="10" x1="90.4" y1="69.5" x2="90.4" y2="73.7"/>
	<line id="Line_113" fill="none" stroke="#263238" stroke-miterlimit="10" x1="94.6" y1="68.3" x2="96.7" y2="71.9"/>
	<line id="Line_114" fill="none" stroke="#263238" stroke-miterlimit="10" x1="97.7" y1="65.1" x2="101.3" y2="67.2"/>
	<line id="Line_115" fill="none" stroke="#263238" stroke-miterlimit="10" x1="98.8" y1="60.8" x2="102.9" y2="60.8"/>
	<line id="Line_116" fill="none" stroke="#263238" stroke-miterlimit="10" x1="97.5" y1="56.6" x2="101.1" y2="54.5"/>
	<line id="Line_117" fill="none" stroke="#263238" stroke-miterlimit="10" x1="94.3" y1="53.5" x2="96.4" y2="49.9"/>
</g>
<path id="Path_394" fill="#FF4343" d="M244.8,180.5H98.3L77.5,65H224L244.8,180.5z"/>
<g id="Group_185" transform="translate(44.664 75.19)">
	<circle id="Ellipse_27" fill="#263238" cx="83.6" cy="54.3" r="6.1"/>
	<circle id="Ellipse_28" fill="#263238" cx="131.7" cy="54.3" r="6.1"/>
	<path id="Path_395" fill="#263238" d="M116.4,61.4l-0.3-0.6c0-0.1-3.2-5.9-9.5-5.9c-5.8,0-7.2,5.5-7.2,5.7l-0.2,0.7L97.7,61
		l0.2-0.7c0-0.1,1.7-6.8,8.6-6.8c7.2,0,10.6,6.4,10.8,6.6l0.3,0.6L116.4,61.4z"/>
</g>
<g id="Fly" transform="translate(300.65 69.182)">
	<g id="Group_192" transform="translate(0 0)">
		<path id="Path_396" fill="none" stroke="#263238" stroke-miterlimit="10" stroke-dasharray="4" d="M-65.6,59.6
			c8.5-1.8,16.2-8.2,16.8-15.8c1.3-14.9-16.8-23.1-15-40.3c1.8-16.4,19-17.6,25.9-15.3c7.6,2.5,5,9.8-1.9,8.9
			c-11.9-1.6-19.5-14.6-13.8-29.4c5.4-14,21-16.9,21-16.9"/>
		<g id="Group_191" transform="translate(28.359)">
			<path id="Path_397" fill="#263238" d="M-53.3-51.7c-1.2-3.8-9.4-2.4-7.8,2.5S-52.1-47.9-53.3-51.7z"/>
			<g id="Group_188">
				<path id="Path_398" fill="#EBEBEB" d="M-65.6-53.2c0.1-1.7,2.4-2.9,5.6-2.4c2.3,0.5,4.4,1.5,6.3,2.8c-2,1.2-4.2,2-6.5,2.3
					C-63.5-50.1-65.7-51.6-65.6-53.2z"/>
				<g id="Group_187" transform="translate(1.824 1.026)">
					<path id="Path_399" fill="#263238" d="M-55.5-53.8c-1.7,0-3.4,0-5.1-0.1c-1.7-0.1-3.4-0.1-5.1-0.3c1.7,0,3.4,0,5.1,0.1
						C-58.8-54-57.1-54-55.5-53.8z"/>
					<path id="Path_400" fill="#263238" d="M-64.2-55.7c0.5,0.2,0.9,0.5,1.4,0.8c0.5,0.3,0.9,0.6,1.3,0.9c-0.5-0.2-0.9-0.5-1.4-0.8
						C-63.3-55.1-63.7-55.4-64.2-55.7z"/>
					<path id="Path_401" fill="#263238" d="M-59.7-54c-0.4,0.4-0.9,0.7-1.4,1c-0.5,0.3-1,0.6-1.5,0.8C-61.7-52.9-60.7-53.5-59.7-54z
						"/>
					<path id="Path_402" fill="#263238" d="M-59.2-54.9c0.5,0.2,0.9,0.6,1.2,1c-0.2-0.1-0.5-0.3-0.7-0.4
						C-58.9-54.5-59.1-54.7-59.2-54.9z"/>
				</g>
			</g>
			<g id="Group_190" transform="translate(2.716 4.994)">
				<path id="Path_403" fill="#EBEBEB" d="M-65.2-48.4c1,1.3,3.6,1,6-1.4c1.5-1.8,2.7-3.8,3.5-6c-2.3,0.2-4.6,0.9-6.7,1.9
					C-65.3-52.1-66.2-49.7-65.2-48.4z"/>
				<g id="Group_189" transform="translate(1.84)">
					<path id="Path_404" fill="#263238" d="M-57.6-55.7c-1.4,1-2.7,2-4.1,3.1c-1.3,1.1-2.7,2.1-4,3.2c1.4-1,2.7-2,4.1-3.1
						C-60.2-53.6-58.9-54.6-57.6-55.7z"/>
					<path id="Path_405" fill="#263238" d="M-63.5-49.1c0.3-0.5,0.5-1,0.7-1.4c0.2-0.5,0.4-1,0.5-1.5c-0.3,0.5-0.5,1-0.7,1.4
						C-63.2-50.1-63.4-49.6-63.5-49.1z"/>
					<path id="Path_406" fill="#263238" d="M-61-53.1c-1.1-0.1-2.2,0-3.3,0.2c0.6,0,1.1,0,1.7,0C-62.1-53-61.5-53-61-53.1z"/>
					<path id="Path_407" fill="#263238" d="M-60-52.6c0.1-0.2,0.2-0.5,0.3-0.7c0.1-0.3,0.1-0.5,0.1-0.8c-0.1,0.2-0.2,0.5-0.3,0.7
						C-60-53.2-60-52.9-60-52.6z"/>
				</g>
			</g>
			<path id="Path_408" fill="#455A64" d="M-53.3-51.7c-0.8,0.2-1.6-0.2-1.8-0.9c-0.2-0.8,0.2-1.6,0.9-1.8s1.6,0.2,1.8,0.9
				C-52.2-52.8-52.6-52-53.3-51.7L-53.3-51.7z"/>
			<path id="Path_409" fill="#455A64" d="M-52.5-49c-0.8,0.2-1.6-0.2-1.8-0.9c-0.2-0.8,0.2-1.6,0.9-1.8s1.6,0.2,1.8,0.9
				C-51.3-50-51.7-49.2-52.5-49L-52.5-49z"/>
		</g>
	</g>
</g>
<g id="Group_193">
	<path id="Path_410" fill="#FFFFFF" d="M119.3,19c-0.7,6.6-6.6,11.3-13.1,10.6c-2.6-0.3-5-1.3-6.8-3.1l-6,0.9l3-5.2
		c-2.5-6.1,0.4-13.1,6.6-15.6s13.1,0.4,15.6,6.6C119.2,15.1,119.5,17,119.3,19z"/>
	<path id="Path_411" fill="#263238" d="M119.3,19c-0.2,2.2-1.1,4.3-2.4,6.1c-0.7,0.9-1.4,1.7-2.3,2.3c-0.9,0.7-1.9,1.2-2.9,1.6
		c-1,0.4-2.1,0.7-3.2,0.8c-0.6,0-1.1,0.1-1.7,0c-0.6,0-1.1-0.1-1.7-0.2c-2.2-0.4-4.3-1.4-5.9-2.9l0.1,0l-6,0.9l-0.4,0.1l0.2-0.4
		l3-5.2l0,0.2c-1.4-3.5-1.2-7.4,0.7-10.7c0.9-1.6,2.2-3,3.7-4c3.1-2.1,7-2.6,10.5-1.4c1.7,0.6,3.3,1.6,4.6,2.8
		C118.4,11.7,119.7,15.3,119.3,19z M119.3,19c0.7-6.5-4-12.3-10.5-13c-1-0.1-2-0.1-3,0.1c-1.8,0.3-3.5,0.9-4.9,2
		c-1.5,1-2.7,2.4-3.6,3.9c-0.9,1.5-1.4,3.3-1.5,5.1c-0.1,1.8,0.2,3.6,0.8,5.2l0,0.1l-0.1,0.1l-3,5.2l-0.2-0.3l6-0.8l0.1,0l0.1,0.1
		c1.6,1.5,3.6,2.5,5.7,2.9c0.5,0.1,1.1,0.2,1.6,0.2c0.5,0,1.1,0,1.6,0c1.1-0.1,2.2-0.3,3.2-0.7c1-0.4,2-0.9,2.9-1.6
		c0.9-0.6,1.7-1.4,2.4-2.3C118.2,23.3,119,21.2,119.3,19z"/>
</g>
<g id="Group_194" transform="translate(8.622 5.286)">
	<path id="Path_412" fill="#FF4343" d="M92.9,18c0-0.6,0.5-1.2,1.1-1.2c0,0,0.1,0,0.1,0c0.7,0,1.2,0.6,1.2,1.3
		c0,0.6-0.5,1.1-1.2,1.2C93.5,19.3,92.9,18.8,92.9,18C92.9,18.1,92.9,18.1,92.9,18z M93.4,15.2l-0.3-9.5h1.9l-0.3,9.5H93.4z"/>
	<path id="Path_413" fill="#FF4343" d="M97.5,18c0-0.6,0.5-1.2,1.1-1.2c0,0,0,0,0.1,0c0.7,0,1.2,0.6,1.2,1.3c0,0.6-0.5,1.1-1.2,1.2
		C98,19.3,97.5,18.8,97.5,18C97.5,18.1,97.5,18.1,97.5,18z M98,15.2l-0.3-9.5h1.9l-0.3,9.5H98z"/>
	<path id="Path_414" fill="#FF4343" d="M102.1,18c0-0.6,0.5-1.2,1.1-1.2c0,0,0,0,0.1,0c0.7,0,1.2,0.6,1.2,1.3c0,0.6-0.5,1.1-1.2,1.2
		C102.6,19.3,102.1,18.8,102.1,18C102,18.1,102,18.1,102.1,18z M102.6,15.2l-0.3-9.5h1.9l-0.3,9.5L102.6,15.2z"/>
</g>
</svg>
