<?xml version="1.0" encoding="utf-8"?>
<!-- Generator: Adobe Illustrator 23.0.5, SVG Export Plug-In . SVG Version: 6.00 Build 0)  -->
<svg version="1.1" id="Layer_1" xmlns="http://www.w3.org/2000/svg" xmlns:xlink="http://www.w3.org/1999/xlink" x="0px" y="0px"
	 viewBox="0 0 295 68" enable-background="new 0 0 295 68" xml:space="preserve">
<g>
	<defs>
		<rect id="SVGID_1_" width="295" height="68"/>
	</defs>
	<clipPath id="SVGID_2_">
		<use xlink:href="#SVGID_1_"  overflow="visible"/>
	</clipPath>
	<g clip-path="url(#SVGID_2_)">
		<path fill-rule="evenodd" clip-rule="evenodd" fill="#373435" d="M151.5,10.4c0.7,0.4,2.9-0.2,3.5-0.3c0.3-0.1,0.8-0.3,1-0.6
			c0.3-0.6-0.8-1.9-1.2-2.2c-0.4-0.4-1.4,0-1.7,0.3c-0.8,0.5-1.3,1.6-1.5,2.5C151.5,10.1,151.5,10.3,151.5,10.4z M206.5,9.7
			c9.2-6.2,19.9-6.5,30.1-2.4c10.2,4.1,14.3,12.6,13.5,23.3c-1.2,16.5-13,22.2-28.3,22c-13.8-0.3-23-6.8-24.3-20.7
			C196.6,23,198.7,14.9,206.5,9.7z M105.8,5c1.1-0.7,2.5-1.3,3.8-0.7c1.2,0.5,1.8,1.6,2,2.8l1.5,7.4c0.8,4.2-3.5,5.9-6.4,2.9
			c-1.7-1.8-5.5-4.3-8.1-4.6c-0.6-0.1-1.3,0-1.9,0.3c-0.3,0.1-0.6,0.4-0.7,0.7c-0.1,0.3,0.3,0.6,0.5,0.8c1.9,1.6,4.4,2.2,6.7,3
			c0.7,0.3,1.4,0.5,2.1,0.8c6.4,2.6,9.8,6.8,9,14.1c-0.9,7.8-6.2,11.1-13.4,12.4c-4.6,0.8-8.2,0-12.7-0.8c-0.5-0.1-0.9-0.2-1.3-0.2
			c-0.3,0-0.6,0-0.8,0c-0.7,0.1-1.4,0.2-2.1-0.1c-1.4-0.6-1.8-2-2-3.4c-0.3-2.8-1-6.4,0.3-9c0.6-1.1,1.5-2,2.9-2.1
			c1.7-0.1,2.9,1.3,3.9,2.4c0.3,0.4,0.8,1.1,1.2,1.4c2.1,1.6,4.7,2.8,7.3,2.7c0.8,0,1.7-0.2,2.4-0.5c0.2-0.1,0.6-0.3,0.7-0.5
			c-0.1-0.2-0.5-0.5-0.6-0.6c-1.9-1.3-4.5-2-6.7-2.7c-3.1-1-5.8-2.2-8-4.7c-3-3.5-4.4-8-3.1-12.4c1-3.5,3.5-6.4,6.7-8.2
			C92.7,4.4,97,3.8,101,4.4c0.7,0.1,1.3,0.3,2,0.4C103.9,5,105,5.3,105.8,5z M131.7,21.8l2.5-0.1c1.2,0,2.3-0.1,3.2,0.8
			c0.7,0.7,1,1.6,0.9,2.6c0,0.6-0.1,1.2-0.3,1.7c-0.6,2.1-2.2,3.3-4.5,3.1c-0.4,0-1.8-0.1-1.8,0.5l-0.2,9.8
			c-0.1,2.5,0.8,3.7,3.5,3.3c1.4-0.2,2.8,0.1,3.6,1.3c0.6,0.9,0.6,1.9,0.1,2.9c-0.4,0.8-1,1.6-1.7,2.2c-1.3,1.2-2.8,2-4.5,2.6
			c-4,1.5-9.3,1.3-12.7-1.7c-2.5-2.2-3.1-5.6-3.1-8.7l0-11.6c-1.2-1.2-2.6-2.5-2.7-4.3c-0.1-1.8,1.2-3,2.7-3.9l8.4-5
			c0.1-0.1,0.3-0.2,0.4-0.3c1.3-0.9,3-2.4,4.7-1.6c1.2,0.6,1.5,1.8,1.5,3.1L131.7,21.8z M166.4,26.2c-2,3.1-5.5,4.8-9,5.6
			c-6.6,1.5-13.3,0.2-17.4-5.4c-0.5-0.6-0.8-1.3-1.2-1.9c-2.4-4.8-1.7-10.7,0.7-15.4c1.1-2.2,2.8-4.3,4.8-5.8
			c3-2.3,6.5-3.4,10.3-3.2c6.7,0.4,12.1,3.2,14,10c1.1,3.9-1.3,6.2-5,6.4c-3.2,0.2-6.4,0.6-9.6,0.6c-0.6,0-1.5,0.1-1.8,0.7
			c-0.3,0.6,0.2,1.6,0.5,2c0.8,1.1,2.2,1.8,3.6,2c1.7,0.3,3.7-0.2,5.3-0.8c1.7-0.7,4.1-1.4,5.4,0.3
			C168.2,22.8,167.3,24.8,166.4,26.2z M184.8,21.4c-0.4-0.3-1.1-0.6-1.5-0.3c-1.9,1.8-1.4,5.9-0.7,8.1c1,3.3,3.3,7.2,7.3,5.4
			l2.1-0.9c1.1-0.5,2.4-0.6,3.5,0.2c1.6,1.2,1.3,3.2,0.7,4.7c-2.3,5.7-10.4,6.8-15.9,6.6c-8.5-0.3-12.8-5.8-13.1-14
			c-0.3-8.3,3.3-14.6,11.4-17.3c3.9-1.3,8-0.8,12.1-0.1c2.3,0.4,4.3,1.9,5.3,4c0.9,1.9,1,4.2-0.3,5.9c-0.9,1.3-2.3,2-3.9,2.1
			c-0.7,0-1.4-0.1-2.1-0.3c-1.5-0.6-2.5-1.7-3.5-2.9C185.7,22.3,185.3,21.8,184.8,21.4z M271.8,41.6c0.1-0.4,0.2-0.8,0.4-1.2
			c0.2-0.5,0.5-0.9,0.8-1.3c0.6-0.7,1.4-1.4,1.4-2.4c0-1.6,0.1-3.1,0.1-4.7c0-1.4,0.2-6.1-0.7-7.2c-0.9-1.2-1.9-2.1-3.5-1.9
			c-1,0.1-1.2,0.4-1.3,1.3v12.6c0,0.7,0.1,0.9,0.5,1.3c0.4,0.4,0.8,0.7,1.1,1.2C271.2,40.1,271.7,40.8,271.8,41.6z M268.9,16.3
			c0.1,0,0.2-0.1,0.2-0.1l0.1-0.1l0.1,0c5.4-2.2,11.1-4,16.1,0.2c3.3,2.7,3.4,6.5,3.6,10.4l0.5,9.8c0.1,1.1,0.8,2,1.6,2.7
			c1.4,1.2,2,2.9,1,4.6c-0.8,1.6-2.5,1.6-4.1,1.6l-10.8-0.2c-1.3,0-2.8,0.2-4-0.5c-0.8-0.5-1.3-1.1-1.4-1.9c0,0.2-0.1,0.4-0.2,0.5
			c-0.5,1.1-1.6,1.6-2.7,1.8l-0.2,0l-13.1-0.1c-1.8,0-4-0.6-4.6-2.6c-0.4-1.6,0.6-2.9,1.7-3.8c1.2-0.9,1.6-1.6,1.5-3.1l-0.2-10.8
			c0-1.1-0.6-1.1-1.4-1.7c-0.9-0.7-1.7-1.7-1.6-2.9c0.1-1.7,1.5-2.8,2.9-3.6c3.2-1.6,6.6-2.7,10.1-3.5c1.2-0.3,2.5-0.5,3.5,0.3
			c0.8,0.6,1,1.5,1.1,2.5C268.8,16.1,268.9,16.2,268.9,16.3z"/>
		<path fill-rule="evenodd" clip-rule="evenodd" fill="#ED3237" d="M207.6,11.4c8.3-5.6,18.2-6.2,28.2-2.2
			c8.5,3.4,13.1,10.5,12.3,21.3c-1.1,15.1-11.7,20.4-26.2,20.1c-14.7-0.3-21.3-7.8-22.4-18.9C198.6,22.7,201,15.8,207.6,11.4z
			 M106.8,6.8c-2,0.8-4-0.2-6-0.5C88,4.4,79,16.4,87.1,25.8c3.9,4.5,10.2,4,14.3,7c5,3.7-4.2,8.5-12.2,2.1c-1.4-1.1-3.4-5.3-4.9-2.4
			c-1,1.9-0.4,5.2-0.1,7.8c0.3,2.8,1.3,1.4,3.2,1.7c4.2,0.6,8.3,1.9,13.3,1c6.3-1.1,11-3.7,11.8-10.6c0.9-8.4-4.6-10.9-9.8-12.8
			c-2.9-1-5.2-1.6-7.4-3.4c-3-2.6,0.2-5.8,3.7-5.3c3.6,0.5,7.9,3.8,9.3,5.2c1.5,1.6,3.4,1,2.9-1.2l-1.5-7.5
			C109.4,5.8,108.3,5.7,106.8,6.8z M129.8,18.7l-0.1,3.2c-0.1,1.4,0.7,2,1.6,2l3-0.1c1.4,0,2.2-0.1,2.1,1.3c-0.1,1.2-0.3,3.2-2.6,3
			c-2.4-0.2-3.9,0.8-4,2.5l-0.2,9.8c-0.1,3.4,1.5,5.9,5.8,5.3c1.9-0.3,2.6,1,0.5,3c-4,3.7-11,3.9-14.4,0.9c-1.7-1.5-2.4-3.9-2.4-7.2
			l-0.1-12.4c-1.9-2.1-4.5-3.6-1-5.6l8.4-5C128.1,18.1,129.9,16.2,129.8,18.7z M152,5.9c1.7-1.1,3.4-0.9,4.2,0
			c2.9,2.9,2.1,5.4-0.7,6.1c-4.6,1.3-6.6,0.1-6-2.4C150,7.9,150.8,6.6,152,5.9z M164.7,25.2c1.8-2.7,0.7-3.5-2.4-2.3
			c-2.3,1-4.6,1.3-6.4,1c-6.5-1.1-8.2-8.6-2-8.8c3.1-0.1,6.3-0.5,9.5-0.6c2.3-0.1,4-1.1,3.2-3.9c-1.6-5.7-6.1-8.1-12.2-8.5
			c-12.3-0.7-18.9,15-12.9,23.2c3.4,4.5,8.9,6.2,15.3,4.7C160.1,29.1,163,27.7,164.7,25.2z M185.9,19.8c-1.4-0.9-3-1.1-4-0.1
			c-2.2,2.1-2.4,6.2-1.2,10.2c1.7,5.5,5.3,8.7,10,6.7l2.1-0.9c1.4-0.6,2.4,0.1,1.5,2.3c-1.8,4.4-8.6,5.5-14,5.3
			c-7.5-0.3-10.9-4.9-11.1-12c-0.3-8.7,3.9-13.3,10-15.3c3.5-1.1,7.2-0.7,11.1,0c5,0.9,5.9,7.9,1.3,8.1
			C189.1,24.2,187.8,21.2,185.9,19.8z M254,21.6c-1.5-1.1-0.9-2.1,1-3.1c3.2-1.6,6.4-2.6,9.7-3.4c1.8-0.4,2.1-0.3,2.1,1.1
			c0.2,1.8,1.6,2.6,3.3,1.7c4.7-1.9,9.7-3.7,14-0.1c2.7,2.3,2.7,5.8,2.9,9l0.5,9.8c0.1,1.6,0.9,2.9,2.3,4.1c0.8,0.8,1,1.5,0.7,2.2
			c-0.3,0.6-1.3,0.6-2.3,0.6l-10.8-0.2c-1.5,0-2.5,0.1-3.1-0.2c-0.5-0.3-0.7-0.9-0.2-1.9c0.7-1.6,2.4-2.3,2.4-4.5
			c0-4.5,0.7-10.9-0.9-13.1c-1.5-2.1-3.3-2.9-5.3-2.7c-1.7,0.1-2.9,0.9-3.2,3.2v12.7c0,2.4,1.2,2.6,2.1,3.8c1.1,1.6,1.1,2.5-0.5,2.8
			l-13-0.1c-2.9,0-3.4-1.5-1.6-2.8c1.2-0.9,2.3-2,2.3-4.7l-0.1-10.9C256.2,22.8,255,22.3,254,21.6z"/>
		<path fill-rule="evenodd" clip-rule="evenodd" fill="#FEFEFE" d="M241.8,31.1c2.1,1.5,2.8,4.4,0.8,5
			C238.2,37.2,239.7,29.6,241.8,31.1z M238.2,26.5c2-0.5,4.1,2.2,2,3.7C235.7,32.9,235.9,27,238.2,26.5z M233.5,23.5
			c0.5-1.6,1.9-2.6,3.5-2.6c2.7,0,3.4,2.3,0.9,4.5C234.5,28.6,232.2,27.4,233.5,23.5z M229.7,18.8c1.2-3.4,5.9-3.2,6-0.3
			c0.1,2.7-1.9,4.2-3.6,5.2C229.3,25.3,228,23.7,229.7,18.8z M224.8,11.8c-3.6,2.7-5.1,6.8-3.4,9.4c1.6,2.3,4.7,2,7.5-2.1
			C233.6,12.4,229.1,8.6,224.8,11.8z M212.7,38.6c-1.2-3-0.8-6.5,1.2-9.5c2-3.1,5.2-5.1,9.3-5c5.5,0,9.3,4.3,12.5,7
			c4.8,4.2,5.8,9.6,4.4,15.2c-4.5,3.1-10.7,4.4-17.8,4.3C219.7,46.2,214.4,42.8,212.7,38.6z"/>
		<path fill="#303335" d="M290.1,64.9c0-0.2,0-0.4-0.1-0.5c-0.1-0.2-0.2-0.3-0.3-0.4c-0.2-0.1-0.4-0.3-0.7-0.4
			c-0.3-0.1-0.7-0.3-1.1-0.4c-0.5-0.2-1-0.4-1.5-0.5c-0.5-0.2-0.9-0.5-1.2-0.7c-0.4-0.3-0.6-0.6-0.8-1c-0.2-0.4-0.3-0.8-0.3-1.3
			c0-0.5,0.1-0.9,0.3-1.3c0.2-0.4,0.5-0.7,0.9-1c0.4-0.3,0.8-0.5,1.3-0.6c0.5-0.2,1.1-0.2,1.7-0.2c0.6,0,1.2,0.1,1.7,0.3
			c0.5,0.2,0.9,0.4,1.3,0.7c0.4,0.3,0.7,0.7,0.8,1.1c0.2,0.4,0.3,0.9,0.3,1.4h-2.3c0-0.2,0-0.5-0.1-0.6c-0.1-0.2-0.2-0.4-0.4-0.5
			c-0.2-0.1-0.4-0.3-0.6-0.4c-0.2-0.1-0.5-0.1-0.8-0.1c-0.3,0-0.6,0-0.8,0.1c-0.2,0.1-0.4,0.2-0.6,0.3c-0.1,0.1-0.3,0.3-0.3,0.4
			c-0.1,0.2-0.1,0.3-0.1,0.5c0,0.4,0.2,0.7,0.6,0.9c0.4,0.3,0.9,0.5,1.7,0.7c0.6,0.2,1.2,0.4,1.6,0.6c0.5,0.2,0.9,0.5,1.2,0.8
			c0.3,0.3,0.6,0.6,0.7,1c0.2,0.4,0.2,0.8,0.2,1.3s-0.1,0.9-0.3,1.3c-0.2,0.4-0.5,0.7-0.8,1c-0.4,0.3-0.8,0.5-1.3,0.6
			c-0.5,0.1-1.1,0.2-1.7,0.2c-0.4,0-0.7,0-1.1-0.1c-0.4-0.1-0.7-0.2-1.1-0.3c-0.3-0.1-0.7-0.3-0.9-0.5c-0.3-0.2-0.6-0.5-0.7-0.7
			c-0.2-0.3-0.4-0.6-0.5-0.9c-0.1-0.4-0.2-0.7-0.2-1.2h2.3c0,0.3,0.1,0.6,0.2,0.9c0.1,0.2,0.3,0.4,0.5,0.6c0.2,0.2,0.4,0.3,0.7,0.3
			c0.3,0.1,0.6,0.1,0.9,0.1c0.3,0,0.6,0,0.8-0.1s0.4-0.2,0.6-0.3c0.1-0.1,0.3-0.3,0.3-0.4C290.1,65.3,290.1,65.1,290.1,64.9z
			 M277.9,66h5v1.9h-7.3V56.6h2.3V66z M267.8,63.6h2.8l-1.4-4.2L267.8,63.6z M271.2,65.5h-4.1l-0.8,2.3h-2.5l4.2-11.3h2.2l4.3,11.3
			H272L271.2,65.5z M258.2,62h2.1c0.3,0,0.6,0,0.9-0.1c0.2-0.1,0.5-0.2,0.6-0.4c0.2-0.1,0.3-0.3,0.4-0.5c0.1-0.2,0.1-0.4,0.1-0.7
			c0-0.2,0-0.5-0.1-0.7c-0.1-0.2-0.2-0.4-0.4-0.6c-0.2-0.2-0.4-0.3-0.6-0.4s-0.5-0.2-0.9-0.2h-2.1V62z M258.2,63.9v4h-2.3V56.6h4.4
			c0.7,0,1.3,0.1,1.8,0.3s1,0.5,1.3,0.8c0.4,0.3,0.7,0.7,0.8,1.2c0.2,0.5,0.3,1,0.3,1.5c0,0.5-0.1,1-0.3,1.5
			c-0.2,0.5-0.5,0.8-0.8,1.1c-0.4,0.3-0.8,0.5-1.3,0.7c-0.5,0.2-1.1,0.3-1.8,0.3L258.2,63.9L258.2,63.9z M247.9,62h2.1
			c0.3,0,0.6,0,0.9-0.1c0.3-0.1,0.4-0.2,0.6-0.4c0.2-0.1,0.3-0.3,0.4-0.5c0.1-0.2,0.1-0.4,0.1-0.7c0-0.2,0-0.5-0.1-0.7
			c-0.1-0.2-0.2-0.4-0.4-0.6c-0.2-0.2-0.4-0.3-0.6-0.4c-0.2-0.1-0.5-0.2-0.9-0.2h-2.1V62z M247.9,63.9v4h-2.3V56.6h4.4
			c0.7,0,1.3,0.1,1.8,0.3c0.5,0.2,1,0.5,1.3,0.8c0.4,0.3,0.7,0.7,0.8,1.2c0.2,0.5,0.3,1,0.3,1.5c0,0.5-0.1,1-0.3,1.5
			c-0.2,0.5-0.5,0.8-0.8,1.1c-0.4,0.3-0.8,0.5-1.3,0.7c-0.5,0.2-1.1,0.3-1.8,0.3L247.9,63.9L247.9,63.9z M237.7,63.6h2.8l-1.4-4.2
			L237.7,63.6z M241.2,65.5h-4.1l-0.8,2.3h-2.5l4.2-11.3h2.2l4.3,11.3H242L241.2,65.5z M232.6,67.8h-2.3V63h-4.6v4.9h-2.3V56.6h2.3
			v4.6h4.6v-4.6h2.3V67.8z M221.8,64.1c0,0.6-0.2,1.1-0.4,1.6c-0.2,0.5-0.5,0.9-0.9,1.2c-0.4,0.4-0.8,0.6-1.4,0.8
			c-0.6,0.2-1.2,0.3-1.9,0.3c-0.7,0-1.4-0.1-2-0.4s-1.1-0.6-1.5-1.1c-0.4-0.5-0.7-1-0.9-1.7c-0.2-0.7-0.3-1.4-0.3-2.3v-0.7
			c0-0.8,0.1-1.6,0.3-2.3c0.2-0.7,0.6-1.2,0.9-1.7c0.4-0.5,0.9-0.8,1.5-1.1c0.6-0.3,1.2-0.4,2-0.4c0.7,0,1.3,0.1,1.9,0.3
			c0.6,0.2,1,0.5,1.4,0.8c0.4,0.4,0.7,0.8,0.9,1.3c0.2,0.5,0.4,1,0.4,1.6h-2.3c0-0.3-0.1-0.6-0.2-0.9c-0.1-0.3-0.2-0.5-0.4-0.6
			c-0.2-0.2-0.4-0.3-0.7-0.4c-0.3-0.1-0.6-0.1-1-0.1c-0.8,0-1.4,0.3-1.8,0.9c-0.4,0.6-0.6,1.5-0.6,2.7v0.7c0,0.6,0,1.1,0.1,1.6
			c0.1,0.5,0.2,0.8,0.4,1.1c0.2,0.3,0.4,0.5,0.7,0.7c0.3,0.1,0.7,0.2,1.1,0.2c0.4,0,0.7,0,0.9-0.1c0.3-0.1,0.5-0.2,0.7-0.4
			c0.2-0.2,0.3-0.4,0.4-0.6c0.1-0.3,0.2-0.5,0.2-0.9L221.8,64.1L221.8,64.1z"/>
		<path fill-rule="evenodd" clip-rule="evenodd" fill="#373435" d="M289.1,2.7c2.9,0,5.2,2.3,5.2,5.2c0,2.9-2.3,5.2-5.2,5.2
			c-2.9,0-5.2-2.3-5.2-5.2C283.9,5,286.3,2.7,289.1,2.7z M289.1,2.1c3.2,0,5.9,2.6,5.9,5.8c0,3.2-2.6,5.8-5.9,5.8
			c-3.2,0-5.9-2.6-5.9-5.8C283.3,4.7,285.9,2.1,289.1,2.1z"/>
		<path fill="#373435" d="M287.3,7.5h1.7c0.4,0,0.7,0,0.8-0.1c0.2-0.1,0.4-0.2,0.5-0.4c0.1-0.2,0.2-0.3,0.2-0.5
			c0-0.3-0.1-0.5-0.3-0.7c-0.2-0.2-0.5-0.3-0.9-0.3h-1.9L287.3,7.5L287.3,7.5z M286.5,10.8V4.9h2.6c0.5,0,0.9,0.1,1.2,0.2
			c0.3,0.1,0.5,0.3,0.7,0.5c0.2,0.3,0.3,0.5,0.3,0.9c0,0.4-0.1,0.8-0.4,1.1c-0.3,0.3-0.7,0.5-1.3,0.5c0.2,0.1,0.4,0.2,0.5,0.3
			c0.2,0.2,0.5,0.5,0.7,0.8l1,1.6h-1L290,9.6c-0.2-0.4-0.4-0.6-0.6-0.8c-0.2-0.2-0.3-0.3-0.4-0.4c-0.1-0.1-0.2-0.1-0.4-0.2
			c-0.1,0-0.2,0-0.4,0h-0.9v2.6H286.5z"/>
		<path fill-rule="evenodd" clip-rule="evenodd" fill="#FEFEFE" d="M30.5,1.5c16.9,0,30.5,13.6,30.5,30.3
			c0,16.7-13.7,30.3-30.5,30.3C13.7,62.1,0,48.6,0,31.8C0,15.1,13.7,1.5,30.5,1.5z"/>
		<path fill-rule="evenodd" clip-rule="evenodd" fill="#ED3237" d="M30.5,4.5c15.2,0,27.5,12.3,27.5,27.4
			c0,15.1-12.3,27.4-27.5,27.4C15.3,59.2,3,46.9,3,31.8C3,16.7,15.3,4.5,30.5,4.5z"/>
		<path fill-rule="evenodd" clip-rule="evenodd" fill="#FEFEFE" d="M20,22.7c0.1,0.6,0.8,4.2,0.4,4.5l-6.6,6.5c-0.4,0.4-1,0.4-1.3,0
			l-1.3-1.3c-0.4-0.4-0.4-1,0-1.3l8.5-8.4C19.7,22.6,20,22.6,20,22.7z M48.2,29.8l1.9,1.9c0.1,0.1,0.1,0.2,0,0.3l-9,9l-0.7-3.3
			c-0.1-0.5-0.3-1,0.1-1.4l6.4-6.4C47.2,29.4,47.8,29.4,48.2,29.8z M29,36.2l2,2c0.4,0.4,0.4,1,0,1.3l-3.8,3.8l0.1,0.1
			c1.6,1.6,4.4,1.6,6,0c1.6-1.6,1.6-4.3,0-5.9L31.8,36L28,32.2c-0.4-0.4-0.6-0.4-1-0.1l-7.5,7.4c-0.4,0.4-1,0.4-1.3,0l-1.3-1.4
			c-0.4-0.4-0.4-1,0-1.3l7.5-7.4c0.5-0.5,0.3-0.5,0-0.9c-2.7-3.1-2.6-7.9,0.4-10.8c3.1-3.1,8.2-3.1,11.3,0l0.7,0.7l0.9,0.9l0.4,0.4
			c0.4,0.4,0.4,1,0,1.3l-5.7,5.7c-0.4,0.4-1,0.4-1.3,0l-1.3-1.3c-0.4-0.4-0.4-1,0-1.3l3.2-3.2c0,0,0.6-0.5-0.1-1
			c-1.7-1.2-4-1.1-5.5,0.4c-1.6,1.6-1.6,4.3,0,5.9l1.4,1.4l3.7,3.8c0.6,0.6,0.6,0.6,1.2,0l7.2-7.1c0.5-0.5,1.2-0.6,1.6-0.3l1.3,1.3
			c0.4,0.4,0.3,1.1-0.3,1.6L36.5,34c0,0-0.5,0.7-0.1,1.2c2.6,3.1,2.5,7.8-0.5,10.7c-3.1,3.1-8.2,3.1-11.3,0L23,44.3l0.1-0.1
			l-0.4-0.4c-0.4-0.4-0.4-1,0-1.3L29,36.2z"/>
	</g>
</g>
</svg>
